<svg width="119" height="99" viewBox="0 0 119 99" fill="none" xmlns="http://www.w3.org/2000/svg">
<g id="game-icons:clothes">
<path id="Vector" d="M30.9818 6.46021L18.1034 9.1363L8.04181 28.6753L15.7791 32.9678L22.1614 22.3524L26.1242 23.2999L22.6216 52.3231H56.9899L59.1281 35.3268L59.3373 33.7606H60.3832L59.1281 23.2999L63.1026 22.3524L69.4709 32.9678L77.2106 28.6753L67.1467 9.1363L54.2705 6.46021C52.9922 7.20851 51.435 7.66097 49.7383 7.99741C47.5535 8.42474 45.0899 8.6239 42.6262 8.6239C40.1625 8.6239 37.6988 8.42474 35.5141 7.99741C33.8174 7.66097 32.2602 7.21044 30.9818 6.46021ZM63.1026 37.2411L62.7539 39.9481H104.311L103.962 37.2411H63.1026ZM62.3123 43.4286L56.1067 92.5419H70.6795L81.4871 50.6022H85.5778L96.3854 92.5419H110.958L104.753 43.4286H62.3123Z" fill="black"/>
</g>
</svg>
