<svg width="103" height="103" viewBox="0 0 103 103" fill="none" xmlns="http://www.w3.org/2000/svg">
<g id="emojione-monotone:cricket-game">
<path id="Vector" d="M77.699 68.5401L79.7139 70.5582L78.1899 72.0855L75.6986 69.5958C75.0826 69.9858 74.4973 70.4222 73.9476 70.901L94.6506 91.6024C95.135 91.0423 95.5711 90.4614 95.9558 89.8514L93.4628 87.3617L94.9934 85.8344L97.0115 87.8526C99.3338 82.4837 98.3135 76.0156 93.9247 71.6268C89.536 67.2381 83.0679 66.2193 77.699 68.5401ZM79.7139 73.6128L81.2429 72.0855L84.2958 75.1417L82.7718 76.6706L79.7139 73.6128ZM84.2974 78.1963L85.828 76.6722L88.8793 79.7252L87.3553 81.2509L84.2974 78.1963ZM91.9388 85.8344L88.8809 82.7798L90.4098 81.2525L93.4628 84.3071L91.9388 85.8344ZM71.1151 74.1793L73.608 76.6722L72.0791 78.1963L70.0609 76.1782C67.7386 81.5486 68.7573 88.0183 73.1461 92.4055C77.5349 96.7926 84.0029 97.8114 89.3734 95.489L87.3569 93.4725L88.8809 91.9436L91.3739 94.4349C91.9822 94.0519 92.5648 93.6141 93.1249 93.1297L72.4187 72.4267C71.9358 72.9868 71.5013 73.5694 71.1151 74.1793ZM87.3553 90.4179L85.828 91.9436L82.7734 88.8906L84.2974 87.3633L87.3553 90.4179ZM82.7734 85.8344L81.2445 87.3617L78.1915 84.3071L79.7156 82.7798L82.7734 85.8344ZM78.1899 81.2509L76.6594 82.7782L73.608 79.7252L75.1321 78.1963L78.1899 81.2509ZM81.1447 40.7912C81.1447 39.9769 80.8212 39.1947 80.2418 38.6186L76.9169 35.2904C76.9008 35.1536 76.8734 35.02 76.8718 34.88C76.8607 34.3117 76.9646 33.747 77.1772 33.2198C77.3899 32.6927 77.707 32.214 78.1094 31.8125L99.7812 10.1375L99.6058 9.49209C99.2185 8.02976 98.4518 6.69566 97.3833 5.62477C96.3129 4.55735 94.981 3.78982 93.5208 3.399L92.8722 3.21875L71.1939 24.8986C70.2734 25.8192 68.9504 26.1878 67.6726 26.0461L64.3879 22.763C64.1028 22.4775 63.7643 22.251 63.3916 22.0965C63.0189 21.9419 62.6195 21.8624 62.216 21.8624C61.8126 21.8624 61.4131 21.9419 61.0404 22.0965C60.6678 22.251 60.3292 22.4775 60.0442 22.763L4.55614 78.251C3.34267 79.4645 2.33681 81.7917 4.43222 85.9889C5.57487 88.2742 7.49486 90.8235 9.83972 93.1683C11.3912 94.7182 16.8051 99.7812 21.3387 99.7812C23.0607 99.7812 24.1471 99.057 24.7554 98.4487L80.2418 42.9623C80.8212 42.3861 81.1447 41.6056 81.1447 40.7912ZM72.8242 26.5273L91.7472 7.6043C92.5342 7.95514 93.2778 8.43473 93.9263 9.0817C94.5733 9.72867 95.0497 10.4722 95.4005 11.2592L76.4791 30.1822C75.6636 30.9976 75.0807 32.016 74.7909 33.1322L74.7378 33.1113L69.8919 28.2638L69.871 28.2156C70.9883 27.9261 72.0079 27.3432 72.8242 26.5273ZM7.27437 79.8781L62.2152 24.9357L69.5636 32.2808L22.0002 79.8459C20.9042 80.9419 18.4901 82.054 16.9403 81.9413C14.6952 81.774 7.27437 79.8781 7.27437 79.8781ZM23.1299 95.7321C23.1299 95.7321 21.2341 88.3128 21.0683 86.0613C20.9541 84.5163 22.0677 82.099 23.1621 81.0047C35.0506 69.1098 70.7256 33.4396 70.7256 33.4396L78.0692 40.788L23.1299 95.7321Z" fill="black"/>
</g>
</svg>
