<svg width="50" height="51" viewBox="0 0 50 51" fill="none" xmlns="http://www.w3.org/2000/svg">
<g id="logos:facebook" opacity="0.9" clip-path="url(#clip0_278_175)">
<path id="Vector" d="M50 25.5C50 11.4168 38.807 0 25 0C11.193 0 0 11.4166 0 25.5C0 38.2277 9.14219 48.7773 21.0938 50.6902V32.8711H14.7461V25.5H21.0938V19.882C21.0938 13.4911 24.8262 9.96094 30.5365 9.96094C33.2719 9.96094 36.1328 10.459 36.1328 10.459V16.7344H32.9805C29.8746 16.7344 28.9062 18.7001 28.9062 20.7168V25.5H35.8398L34.7314 32.8711H28.9062V50.6902C40.8578 48.7773 50 38.2279 50 25.5Z" fill="#1877F2"/>
<path id="Vector_2" d="M34.7314 32.8711L35.8398 25.5H28.9062V20.7168C28.9062 18.6999 29.8748 16.7344 32.9805 16.7344H36.1328V10.459C36.1328 10.459 33.2719 9.96094 30.5365 9.96094C24.8262 9.96094 21.0938 13.4911 21.0938 19.882V25.5H14.7461V32.8711H21.0938V50.6902C22.386 50.8968 23.692 51.0004 25 51C26.308 51.0004 27.614 50.8968 28.9062 50.6902V32.8711H34.7314Z" fill="white"/>
</g>
<defs>
<clipPath id="clip0_278_175">
<rect width="50" height="51" fill="white"/>
</clipPath>
</defs>
</svg>
