<svg width="57" height="57" viewBox="0 0 57 57" fill="none" xmlns="http://www.w3.org/2000/svg">
<g id="ic:round-live-tv">
<path id="Vector" d="M24.9375 40.7313L34.39 35.3163C35.9813 34.4138 35.9813 32.1101 34.39 31.1838L24.9375 25.7688C23.3463 24.8663 21.375 26.0301 21.375 27.8351V38.6413C21.375 40.4701 23.3463 41.6338 24.9375 40.7313ZM49.875 14.2501H31.8487L38.8312 7.2676C39.3063 6.7926 39.3063 6.05635 38.8312 5.58135C38.3563 5.10635 37.62 5.10635 37.145 5.58135L28.5 14.2263L19.855 5.58135C19.38 5.10635 18.6438 5.10635 18.1687 5.58135C17.6938 6.05635 17.6938 6.7926 18.1687 7.2676L25.1513 14.2501H7.125C5.86522 14.2501 4.65704 14.7505 3.76624 15.6413C2.87545 16.5321 2.375 17.7403 2.375 19.0001V47.5001C2.375 50.1126 4.5125 52.2501 7.125 52.2501H49.875C52.4875 52.2501 54.625 50.1126 54.625 47.5001V19.0001C54.625 17.7403 54.1246 16.5321 53.2338 15.6413C52.343 14.7505 51.1348 14.2501 49.875 14.2501ZM47.5 47.5001H9.5C8.19375 47.5001 7.125 46.4313 7.125 45.1251V21.3751C7.125 20.0688 8.19375 19.0001 9.5 19.0001H47.5C48.8063 19.0001 49.875 20.0688 49.875 21.3751V45.1251C49.875 46.4313 48.8063 47.5001 47.5 47.5001Z" fill="#E43D35"/>
</g>
</svg>
