<svg width="46" height="47" viewBox="0 0 46 47" fill="none" xmlns="http://www.w3.org/2000/svg">
<g id="skill-icons:instagram" opacity="0.9" clip-path="url(#clip0_278_165)">
<g id="Group">
<path id="Vector" d="M35.2188 0H10.7812C4.82693 0 0 4.93186 0 11.0156V35.9844C0 42.0681 4.82693 47 10.7812 47H35.2188C41.1731 47 46 42.0681 46 35.9844V11.0156C46 4.93186 41.1731 0 35.2188 0Z" fill="url(#paint0_radial_278_165)"/>
<path id="Vector_2" d="M35.2188 0H10.7812C4.82693 0 0 4.93186 0 11.0156V35.9844C0 42.0681 4.82693 47 10.7812 47H35.2188C41.1731 47 46 42.0681 46 35.9844V11.0156C46 4.93186 41.1731 0 35.2188 0Z" fill="url(#paint1_radial_278_165)"/>
<path id="Vector_3" d="M23.0016 5.14062C18.1217 5.14062 17.5091 5.16247 15.5926 5.25152C13.6796 5.34111 12.3738 5.65046 11.2314 6.10449C10.0494 6.57339 9.04691 7.20073 8.0482 8.22151C7.0486 9.24211 6.43461 10.2664 5.97425 11.4735C5.52863 12.6412 5.22549 13.9759 5.13942 15.9295C5.05371 17.8879 5.03125 18.514 5.03125 23.5002C5.03125 28.4864 5.05281 29.1103 5.13978 31.0685C5.22783 33.023 5.5306 34.3572 5.97461 35.5245C6.43389 36.7322 7.04788 37.7564 8.04695 38.7768C9.04547 39.7982 10.0479 40.427 11.229 40.8959C12.3724 41.3499 13.6784 41.6593 15.5909 41.7489C17.5077 41.8379 18.1197 41.8597 22.9995 41.8597C27.88 41.8597 28.4905 41.8379 30.4071 41.7489C32.32 41.6593 33.6273 41.3499 34.7706 40.8959C35.9521 40.427 36.9531 39.7982 37.9514 38.7768C38.951 37.7564 39.5648 36.7322 40.0254 35.525C40.4671 34.3572 40.7704 33.0226 40.8602 31.0688C40.9463 29.1106 40.9688 28.4864 40.9688 23.5002C40.9688 18.514 40.9463 17.8883 40.8602 15.9299C40.7704 13.9753 40.4671 12.6413 40.0254 11.4741C39.5648 10.2664 38.951 9.24211 37.9514 8.22151C36.952 7.20036 35.9524 6.57302 34.7695 6.10468C33.624 5.65046 32.3175 5.34093 30.4046 5.25152C28.4878 5.16247 27.8776 5.14062 22.996 5.14062H23.0016ZM21.3896 8.44917C21.8681 8.44843 22.402 8.44917 23.0016 8.44917C27.7995 8.44917 28.368 8.46679 30.2626 8.55473C32.0146 8.63662 32.9655 8.93569 33.5989 9.18703C34.4375 9.5197 35.0353 9.91755 35.6638 10.5603C36.2927 11.2029 36.6819 11.8148 37.0084 12.6716C37.2544 13.3179 37.5475 14.2895 37.6273 16.0795C37.7134 18.015 37.732 18.5962 37.732 23.496C37.732 28.3957 37.7134 28.9772 37.6273 30.9124C37.5471 32.7025 37.2544 33.674 37.0084 34.3205C36.6828 35.1773 36.2927 35.7874 35.6638 36.4296C35.0349 37.0722 34.4378 37.4698 33.5989 37.8027C32.9662 38.0551 32.0146 38.3535 30.2626 38.4354C28.3683 38.5233 27.7995 38.5424 23.0016 38.5424C18.2036 38.5424 17.6349 38.5233 15.7408 38.4354C13.9889 38.3527 13.0379 38.0537 12.404 37.8023C11.5656 37.4695 10.9665 37.0718 10.3376 36.4292C9.70869 35.7866 9.31949 35.1762 8.993 34.319C8.74701 33.6726 8.45394 32.701 8.37416 30.9109C8.28809 28.9755 8.27084 28.3942 8.27084 23.4914C8.27084 18.5887 8.28809 18.0104 8.37416 16.0749C8.4543 14.2849 8.74701 13.3133 8.993 12.6661C9.31877 11.8093 9.7087 11.1974 10.3378 10.5548C10.9667 9.91223 11.5656 9.51438 12.4042 9.18097C13.0376 8.92853 13.9889 8.63019 15.7408 8.54794C17.3984 8.47138 18.0408 8.44843 21.3896 8.44458V8.44917ZM32.5933 11.4976C31.4029 11.4976 30.4371 12.4835 30.4371 13.6999C30.4371 14.9163 31.4029 15.9031 32.5933 15.9031C33.7838 15.9031 34.7496 14.9163 34.7496 13.6999C34.7496 12.4836 33.7838 11.4968 32.5933 11.4968V11.4976ZM23.0016 14.0717C17.9057 14.0717 13.7739 18.2933 13.7739 23.5002C13.7739 28.7071 17.9057 32.9266 23.0016 32.9266C28.0977 32.9266 32.228 28.7071 32.228 23.5002C32.228 18.2935 28.0974 14.0717 23.0013 14.0717H23.0016ZM23.0016 17.3803C26.3095 17.3803 28.9913 20.12 28.9913 23.5002C28.9913 26.88 26.3095 29.6201 23.0016 29.6201C19.6936 29.6201 17.0121 26.88 17.0121 23.5002C17.0121 20.12 19.6936 17.3803 23.0016 17.3803Z" fill="white"/>
</g>
</g>
<defs>
<radialGradient id="paint0_radial_278_165" cx="0" cy="0" r="1" gradientUnits="userSpaceOnUse" gradientTransform="translate(12.2187 50.6199) rotate(-90) scale(46.5805 42.4018)">
<stop stop-color="#FFDD55"/>
<stop offset="0.1" stop-color="#FFDD55"/>
<stop offset="0.5" stop-color="#FF543E"/>
<stop offset="1" stop-color="#C837AB"/>
</radialGradient>
<radialGradient id="paint1_radial_278_165" cx="0" cy="0" r="1" gradientUnits="userSpaceOnUse" gradientTransform="translate(-7.70518 3.38565) rotate(78.9158) scale(20.8048 84.0699)">
<stop stop-color="#3771C8"/>
<stop offset="0.128" stop-color="#3771C8"/>
<stop offset="1" stop-color="#6600FF" stop-opacity="0"/>
</radialGradient>
<clipPath id="clip0_278_165">
<rect width="46" height="47" fill="white"/>
</clipPath>
</defs>
</svg>
