<svg width="57" height="97" viewBox="0 0 57 97" fill="none" xmlns="http://www.w3.org/2000/svg">
<g id="Group 35" opacity="0.75">
<g id="Vector">
<path d="M53.998 14.4373C57.3008 11.1346 57.3008 5.77978 53.998 2.47705C50.6953 -0.825682 45.3405 -0.825684 42.0378 2.47705L2.47694 42.0379C-0.82579 45.3406 -0.82579 50.6954 2.47694 53.9981C5.77967 57.3009 11.1345 57.3009 14.4372 53.9981L53.998 14.4373Z" fill="#1048B0"/>
<path d="M42.1755 94.1958C45.4782 97.4985 50.833 97.4985 54.1357 94.1958C57.4385 90.8931 57.4385 85.5383 54.1357 82.2356L14.5749 42.6747C11.2722 39.372 5.91739 39.372 2.61465 42.6747C-0.68808 45.9775 -0.688076 51.3322 2.61465 54.635L42.1755 94.1958Z" fill="#1048B0"/>
</g>
</g>
</svg>
