<svg width="46" height="45" viewBox="0 0 46 45" fill="none" xmlns="http://www.w3.org/2000/svg">
<g id="skill-icons:linkedin" opacity="0.9" clip-path="url(#clip0_278_170)">
<g id="Group">
<path id="Vector" d="M35.2188 0H10.7812C4.82693 0 0 4.722 0 10.5469V34.4531C0 40.278 4.82693 45 10.7812 45H35.2188C41.1731 45 46 40.278 46 34.4531V10.5469C46 4.722 41.1731 0 35.2188 0Z" fill="white"/>
<path id="Vector_2" d="M35.2188 0H10.7812C4.82693 0 0 4.722 0 10.5469V34.4531C0 40.278 4.82693 45 10.7812 45H35.2188C41.1731 45 46 40.278 46 34.4531V10.5469C46 4.722 41.1731 0 35.2188 0Z" fill="#0A66C2"/>
<path id="Vector_3" d="M33.191 38.2649H38.4504C38.641 38.2649 38.8238 38.1909 38.9586 38.0591C39.0934 37.9272 39.1691 37.7484 39.1692 37.562L39.1719 26.6913C39.1719 21.0095 37.9204 16.6423 31.133 16.6423C28.5529 16.5484 26.1197 17.8495 24.8068 20.0222C24.8003 20.0327 24.7906 20.041 24.7789 20.0456C24.7673 20.0502 24.7544 20.0509 24.7423 20.0477C24.7302 20.0445 24.7195 20.0375 24.7118 20.0278C24.7042 20.0181 24.6999 20.0062 24.6998 19.9939V17.8699C24.6998 17.6834 24.6241 17.5046 24.4893 17.3727C24.3545 17.2409 24.1717 17.1668 23.9811 17.1668H18.9899C18.7993 17.1668 18.6165 17.2409 18.4817 17.3727C18.3469 17.5046 18.2712 17.6834 18.2712 17.8699V37.5609C18.2712 37.7474 18.3469 37.9263 18.4817 38.0581C18.6165 38.19 18.7993 38.2641 18.9899 38.2641H24.249C24.4396 38.2641 24.6224 38.19 24.7572 38.0581C24.892 37.9263 24.9678 37.7474 24.9678 37.5609V27.8274C24.9678 25.0752 25.5014 22.4098 28.9893 22.4098C32.4277 22.4098 32.4722 25.5591 32.4722 28.0056V37.5618C32.4722 37.7483 32.548 37.9271 32.6827 38.059C32.8175 38.1909 33.0004 38.2649 33.191 38.2649ZM6.82812 10.4813C6.82812 12.567 8.58313 14.2829 10.7151 14.2829C12.8466 14.2828 14.6005 12.5657 14.6005 10.4806C14.6001 8.39549 12.846 6.67969 10.7144 6.67969C8.58223 6.67969 6.82812 8.39584 6.82812 10.4813ZM8.07857 38.2649H13.3447C13.5353 38.2649 13.7181 38.1909 13.8529 38.059C13.9877 37.9271 14.0634 37.7483 14.0634 37.5618V17.8699C14.0634 17.6834 13.9877 17.5046 13.8529 17.3727C13.7181 17.2409 13.5353 17.1668 13.3447 17.1668H8.07857C7.88795 17.1668 7.70513 17.2409 7.57034 17.3727C7.43555 17.5046 7.35982 17.6834 7.35982 17.8699V37.5618C7.35982 37.7483 7.43555 37.9271 7.57034 38.059C7.70513 38.1909 7.88795 38.2649 8.07857 38.2649Z" fill="white"/>
</g>
</g>
<defs>
<clipPath id="clip0_278_170">
<rect width="46" height="45" fill="white"/>
</clipPath>
</defs>
</svg>
