<svg width="63" height="63" viewBox="0 0 63 63" fill="none" xmlns="http://www.w3.org/2000/svg">
<g id="mdi:whistle-outline">
<path id="Vector" d="M9.87001 9.7125L5.61751 12.81L11.6288 21C13.2234 20.1624 14.9165 19.5274 16.6688 19.11M28.875 23.625V28.875H47.25V29.6362L34.125 33.3638V40.6875C34.125 43.0238 33.4322 45.3076 32.1342 47.2502C30.8363 49.1927 28.9914 50.7068 26.833 51.6008C24.6745 52.4949 22.2994 52.7288 20.008 52.273C17.7166 51.8172 15.6118 50.6922 13.9598 49.0402C12.3078 47.3882 11.1828 45.2834 10.727 42.992C10.2712 40.7006 10.5051 38.3255 11.3992 36.1671C12.2932 34.0086 13.8073 32.1637 15.7498 30.8658C17.6924 29.5678 19.9762 28.875 22.3125 28.875H23.625V23.625H22.3125C18.9379 23.625 15.639 24.6257 12.8331 26.5005C10.0272 28.3754 7.84023 31.0402 6.54881 34.158C5.25739 37.2757 4.9195 40.7064 5.57786 44.0162C6.23622 47.326 7.86126 50.3663 10.2475 52.7525C12.6337 55.1387 15.674 56.7638 18.9838 57.4221C22.2936 58.0805 25.7243 57.7426 28.842 56.4512C31.9598 55.1598 34.6246 52.9728 36.4995 50.1669C38.3743 47.361 39.375 44.0621 39.375 40.6875V36.5138L57.75 31.5V23.625M42.63 9.7125L36.3563 18.375H42.84L46.8825 12.81M23.625 5.25V18.375H28.875V5.25H23.625Z" fill="#6094F5"/>
</g>
</svg>
