<svg width="105" height="84" viewBox="0 0 105 84" fill="none" xmlns="http://www.w3.org/2000/svg">
<g id="fa-solid:restroom">
<path id="Vector" d="M20.8053 20.8052C26.543 20.8052 31.2079 16.1403 31.2079 10.4026C31.2079 4.66493 26.543 0 20.8053 0C15.0676 0 10.4026 4.66493 10.4026 10.4026C10.4026 16.1403 15.0676 20.8052 20.8053 20.8052ZM83.221 20.8052C88.9587 20.8052 93.6236 16.1403 93.6236 10.4026C93.6236 4.66493 88.9587 0 83.221 0C77.4833 0 72.8184 4.66493 72.8184 10.4026C72.8184 16.1403 77.4833 20.8052 83.221 20.8052ZM103.912 57.6208L96.5006 27.4207C95.9642 25.2264 93.9812 23.6822 91.6569 23.4872C89.2188 25.0638 86.3255 26.0066 83.2047 26.0066C80.0839 26.0066 77.1907 25.0638 74.7526 23.4872C72.4283 23.6822 70.4453 25.2264 69.9089 27.4207L62.497 57.6208C61.9281 60.0751 63.8786 62.4157 66.5118 62.4157H75.419V79.32C75.419 81.4818 77.1582 83.221 79.32 83.221H87.122C89.2838 83.221 91.0229 81.4818 91.0229 79.32V62.4157H99.9302C102.563 62.4157 104.514 60.0751 103.912 57.6208ZM54.6138 0H49.4125C47.9821 0 46.8118 1.17029 46.8118 2.60066V80.6203C46.8118 82.0507 47.9821 83.221 49.4125 83.221H54.6138C56.0441 83.221 57.2144 82.0507 57.2144 80.6203V2.60066C57.2144 1.17029 56.0441 0 54.6138 0ZM29.2736 23.4709C26.8355 25.0638 23.926 26.0066 20.8053 26.0066C17.6845 26.0066 14.775 25.0638 12.3369 23.4709C8.33837 23.8123 5.20132 27.1281 5.20132 31.2079V53.3134C5.20132 55.4752 6.94051 57.2144 9.10231 57.2144H10.4026V79.32C10.4026 81.4818 12.1418 83.221 14.3036 83.221H27.3069C29.4687 83.221 31.2079 81.4818 31.2079 79.32V57.2144H32.5082C34.67 57.2144 36.4092 55.4752 36.4092 53.3134V31.2079C36.4092 27.1281 33.2721 23.8123 29.2736 23.4709Z" fill="black"/>
</g>
</svg>
