<svg width="57" height="97" viewBox="0 0 57 97" fill="none" xmlns="http://www.w3.org/2000/svg">
<g id="Group 23" opacity="0.75">
<g id="Vector">
<path d="M2.61477 14.4373C-0.687966 11.1346 -0.687968 5.77978 2.61476 2.47705C5.9175 -0.825682 11.2723 -0.825684 14.575 2.47705L54.1359 42.0379C57.4386 45.3406 57.4386 50.6954 54.1359 53.9981C50.8331 57.3009 45.4783 57.3009 42.1756 53.9981L2.61477 14.4373Z" fill="#1048B0"/>
<path d="M14.4373 94.1958C11.1346 97.4985 5.77978 97.4985 2.47705 94.1958C-0.825682 90.8931 -0.825684 85.5383 2.47705 82.2356L42.0379 42.6747C45.3406 39.372 50.6954 39.372 53.9981 42.6747C57.3009 45.9775 57.3009 51.3322 53.9981 54.635L14.4373 94.1958Z" fill="#1048B0"/>
</g>
</g>
</svg>
