<svg xmlns="http://www.w3.org/2000/svg" version="1.1" xmlns:xlink="http://www.w3.org/1999/xlink" xmlns:svgjs="http://svgjs.com/svgjs" width="2078.13" height="2078.13"><svg id="SvgjsSvg1001" xmlns="http://www.w3.org/2000/svg" xmlns:xlink="http://www.w3.org/1999/xlink" viewBox="0 0 2078.13 2078.13"><defs><style>.cls-1{fill:#fff;}.cls-2{filter:url(#drop-shadow-8);}</style><filter id="SvgjsFilter1000" filterUnits="userSpaceOnUse"><feOffset dx="5" dy="5"></feOffset><feGaussianBlur result="blur" stdDeviation="5"></feGaussianBlur><feFlood flood-color="#231f20" flood-opacity=".5"></feFlood><feComposite in2="blur" operator="in"></feComposite><feComposite in="SourceGraphic"></feComposite></filter></defs><g class="cls-2"><path class="cls-1" d="m1407.56,1724.45c-11.43,0-20.35-7.48-26.1-13.16-80.72-79.73-163.33-160.29-243.21-238.19l-45.88-44.75c-13.5-13.18-27.31-26.31-41.92-40.21-1.26-1.2-2.52-2.4-3.8-3.61-2.41,8.29-4.65,15.84-7.1,23.48-42.99,133.75-135.56,214.12-275.16,238.89-53.73,9.53-108.51,17.77-161.48,25.74-35.59,5.35-72.38,10.89-108.46,16.76-3.94.64-15.92,2.59-25.53-4.4-8.46-6.15-10.91-15.89-12.11-23.69l-.21-1.39c-11.6-75.68-23.59-153.94-36.12-230.75-1.2-7.34-2.02-18.15,4.6-27.23,6.65-9.13,17.56-11.71,25.18-12.86,41.94-6.31,84.56-12.97,125.78-19.4,45.46-7.1,92.46-14.44,138.77-21.35,8.25-1.23,9.7-2.48,11.89-10.28,10.17-36.14,20.94-72.71,31.36-108.07,8.99-30.5,18.28-62.05,27.12-93.12,3.35-11.76,9.94-25.67,31.38-28.84,26.4-3.91,53.24-8.23,79.21-12.42,47.31-7.62,96.23-15.5,144.75-21.25,91.47-10.84,172.29,19.72,247.06,93.44,89.16,87.91,180.81,176.35,269.43,261.88,16.43,15.85,32.86,31.71,49.28,47.56,5.73,5.53,11.21,11.82,12.59,20.34,2.14,13.2-7.1,22.92-10.13,26.12-63.81,67.2-120.68,127.94-173.87,185.67-6.75,7.32-15.19,14.85-26.69,15.12-.21,0-.41,0-.62,0Zm-368.61-383.96c3.91,0,7.74,1.49,10.64,4.27,7.66,7.33,14.99,14.3,22.09,21.05,14.69,13.97,28.56,27.17,42.2,40.48l45.87,44.75c79.92,77.94,162.55,158.54,243.35,238.33,2.01,1.99,3.42,3.1,4.31,3.72.93-.73,2.46-2.09,4.81-4.64,53.3-57.85,110.27-118.69,174.19-186.01.28-.29.53-.56.74-.81-.56-.6-1.3-1.35-2.26-2.29-16.42-15.86-32.84-31.71-49.27-47.56-88.69-85.58-180.39-174.08-269.67-262.11-67.67-66.72-140.21-94.45-221.81-84.78-47.88,5.67-96.47,13.5-143.47,21.07-26.06,4.2-53,8.54-79.59,12.47-4.09.61-4.52.67-6.27,6.81-8.88,31.2-18.2,62.81-27.2,93.38-10.39,35.28-21.14,71.76-31.25,107.71-5.46,19.4-16.87,29.39-36.99,32.39-46.2,6.9-93.15,14.23-138.56,21.32-41.26,6.44-83.93,13.11-125.94,19.43-2.09.31-3.48.65-4.37.91.02.83.12,2.05.4,3.77,12.55,76.96,24.55,155.29,36.16,231.04l.21,1.39c.16,1.08.32,1.93.47,2.6.5-.05,1.09-.13,1.78-.24,36.26-5.9,73.15-11.45,108.82-16.81,52.78-7.94,107.35-16.15,160.68-25.61,63.51-11.27,116.79-35.17,158.35-71.04,41.92-36.18,73.16-85.62,92.87-146.95,2.97-9.23,5.67-18.57,8.8-29.4,1.59-5.49,3.28-11.32,5.14-17.64,1.52-5.15,5.62-9.13,10.8-10.52,1.31-.35,2.64-.52,3.96-.52Z"></path><path class="cls-1" d="m486.33,1690.12c-5.2,0-11.73-1.01-17.43-5.16-8.45-6.16-10.9-15.89-12.09-23.68-10.92-71.33-23.3-152.19-36.33-232.13-1.2-7.34-2.03-18.16,4.6-27.25,6.66-9.13,17.57-11.7,25.2-12.85,41.53-6.26,83.76-12.85,124.6-19.23,45.83-7.16,93.23-14.56,139.92-21.53,6.66-1,8.09-2.51,8.63-3.08,4.9-5.15,12.69-6.27,18.84-2.72,6.16,3.55,9.08,10.85,7.08,17.67l-86.27,294.33c-1.68,5.74-6.54,9.99-12.45,10.89-15.68,2.4-31.37,4.76-47.06,7.12-35.8,5.39-72.83,10.96-109.11,16.87-1.61.26-4.56.74-8.13.74Zm-35.86-269.7c.02.83.12,2.05.4,3.77,13.06,80.09,25.45,161.03,36.38,232.44.16,1.07.32,1.92.47,2.59.5-.05,1.1-.13,1.81-.24,36.45-5.94,73.57-11.52,109.47-16.92,12.43-1.87,24.87-3.74,37.3-5.63l75.18-256.49c-44.04,6.61-88.64,13.57-131.84,20.32-40.88,6.38-83.15,12.98-124.77,19.26-2.1.31-3.49.64-4.39.91Z"></path><path class="cls-1" d="m843.82,1044.98c-2.13,0-4.12-.23-6.08-.45-1.27-.14-2.74-.31-4.52-.44-4.67-.33-8.93-2.76-11.59-6.62-2.66-3.85-3.42-8.7-2.07-13.18,19.82-65.9,38.87-129.2,57.89-192.51,2.64-8.78,5.33-17.55,8.03-26.31,6.53-21.23,13.28-43.18,19-64.84,5.99-22.78,19.22-34.49,42.87-37.97,58.47-8.62,117.87-17.92,175.31-26.91,44.4-6.95,90.31-14.14,135.52-20.97,2.33-.36,4.56-.85,6.93-1.37,1.04-.23,2.07-.46,3.07-.66,2.35-.49,4.35-.89,6.92-1.3l364.37-57.18c3.63-.9,7.58-.5,11.09,1.44,7.35,4.06,10.02,13.36,6.12,20.76-2.26,4.31-4.52,8.59-6.79,12.9-6.24,11.88-12.49,23.8-18.75,35.72-26.53,50.59-53.96,102.9-81.72,153.99-43.9,80.8-112.89,131.35-199.5,146.19-119.96,20.57-242.21,39.36-360.44,57.52-46.4,7.13-94.37,14.5-141.53,21.87-1.45.23-2.82.31-4.14.31Zm771.34-415.73l-335.29,52.62c-1.88.3-3.3.58-5.42,1.02-.89.18-1.79.38-2.71.59-2.61.58-5.58,1.23-8.93,1.74-45.16,6.82-91.03,14.01-135.38,20.95-57.51,9.01-116.98,18.32-175.59,26.96-11.45,1.69-14.74,4.56-17.58,15.36-5.88,22.27-12.72,44.52-19.34,66.04-2.68,8.7-5.35,17.4-7.97,26.12-17.01,56.61-34.04,113.23-51.63,171.7,43.27-6.75,87.04-13.47,129.48-19.99,118.1-18.15,240.22-36.91,359.92-57.44,78.08-13.38,137.84-57.3,177.64-130.54,27.65-50.89,55.03-103.1,81.51-153.59,3.76-7.18,7.53-14.35,11.29-21.53Z"></path><path class="cls-1" d="m1059.72,631.07c-67.08,0-126.22-48.92-136.92-117.23-5.73-36.6,3.13-73.23,24.96-103.16,21.82-29.93,54-49.57,90.59-55.3,36.6-5.73,73.23,3.13,103.16,24.95,29.93,21.82,49.57,54,55.3,90.59h0c5.73,36.6-3.13,73.23-24.95,103.16-21.82,29.93-54,49.57-90.59,55.3-7.23,1.13-14.44,1.68-21.54,1.68Zm.31-246.59c-5.62,0-11.27.44-16.92,1.32-58.77,9.2-99.09,64.5-89.89,123.27,9.2,58.77,64.52,99.09,123.27,89.89,58.77-9.2,99.09-64.5,89.89-123.27-4.46-28.47-19.74-53.5-43.02-70.47-18.66-13.61-40.67-20.74-63.33-20.74Z"></path><path class="cls-1" d="m486.33,1690.12c-5.2,0-11.73-1.01-17.43-5.16-8.45-6.16-10.9-15.89-12.09-23.68-10.92-71.33-23.3-152.19-36.33-232.13-1.2-7.34-2.03-18.16,4.6-27.25,6.66-9.13,17.57-11.7,25.2-12.85,41.53-6.26,83.76-12.85,124.6-19.23,45.84-7.16,93.24-14.56,139.93-21.53,8.25-1.23,9.69-2.48,11.89-10.3,10.1-35.91,20.81-72.26,31.17-107.42,9.05-30.71,18.4-62.47,27.3-93.75,1.27-4.45,2.74-8.15,4.49-11.3,2.31-4.16,6.41-7.01,11.12-7.74,4.7-.72,9.47.76,12.93,4.03l235.76,223.12c4.21,3.98,5.82,9.99,4.18,15.55-1.84,6.21-3.49,11.94-5.06,17.35-3.19,11.01-5.94,20.52-9.03,30.15-43,133.75-135.59,214.13-275.18,238.88-53.69,9.53-108.43,17.77-161.37,25.73-35.62,5.36-72.44,10.9-108.54,16.77-1.61.26-4.56.74-8.13.74Zm-35.86-269.7c.02.83.12,2.05.4,3.77,13.06,80.09,25.45,161.03,36.38,232.44.16,1.07.32,1.92.47,2.59.5-.05,1.1-.13,1.81-.24,36.27-5.9,73.19-11.46,108.9-16.83,52.74-7.93,107.28-16.14,160.57-25.6,63.51-11.26,116.79-35.16,158.36-71.04,41.92-36.18,73.17-85.62,92.89-146.95,2.96-9.2,5.65-18.5,8.77-29.28.79-2.73,1.6-5.53,2.45-8.44l-211.17-199.85c-7.55,26.26-15.32,52.64-22.88,78.28-10.33,35.07-21.01,71.33-31.07,107.07-5.47,19.41-16.88,29.4-36.99,32.41-46.6,6.96-93.94,14.35-139.73,21.5-40.88,6.38-83.15,12.98-124.77,19.26-2.1.31-3.49.64-4.39.91Z"></path></g></svg><style>@media (prefers-color-scheme: light) { :root { filter: none; } }
</style></svg>